<mxfile host="Electron" agent="Mozilla/5.0 (Macintosh; Intel Mac OS X 10_15_7) AppleWebKit/537.36 (KHTML, like Gecko) draw.io/24.7.17 Chrome/128.0.6613.36 Electron/32.0.1 Safari/537.36" version="24.7.17">
  <diagram name="Page-1" id="03018318-947c-dd8e-b7a3-06fadd420f32">
    <mxGraphModel dx="1114" dy="999" grid="1" gridSize="10" guides="1" tooltips="1" connect="1" arrows="1" fold="1" page="1" pageScale="1" pageWidth="1100" pageHeight="850" background="none" math="0" shadow="0">
      <root>
        <mxCell id="0" />
        <mxCell id="1" parent="0" />
        <mxCell id="677b7b8949515195-1" value="" style="whiteSpace=wrap;html=1;rounded=0;shadow=0;labelBackgroundColor=none;strokeColor=#000000;strokeWidth=1;fillColor=none;fontFamily=Verdana;fontSize=12;fontColor=#000000;align=center;comic=1;" parent="1" vertex="1">
          <mxGeometry x="20" y="20" width="1060" height="110" as="geometry" />
        </mxCell>
        <mxCell id="677b7b8949515195-15" value="&lt;font style=&quot;font-size: 18px;&quot;&gt;&lt;b&gt;The About and Contact links will launch a modal dialog&lt;/b&gt;&lt;/font&gt;" style="whiteSpace=wrap;html=1;rounded=0;shadow=0;labelBackgroundColor=none;strokeWidth=1;fillColor=none;fontFamily=Verdana;fontSize=12;align=center;verticalAlign=top;spacing=10;comic=1;" parent="1" vertex="1">
          <mxGeometry x="20" y="30" width="1060" height="90" as="geometry" />
        </mxCell>
        <mxCell id="677b7b8949515195-2" value="LOGO" style="whiteSpace=wrap;html=1;rounded=0;shadow=0;labelBackgroundColor=none;strokeWidth=1;fontFamily=Verdana;fontSize=28;align=center;comic=1;" parent="1" vertex="1">
          <mxGeometry x="40" y="50" width="210" height="50" as="geometry" />
        </mxCell>
        <mxCell id="bn-o1jzMvr0Oua4psibJ-12" value="&lt;font style=&quot;font-size: 19px;&quot;&gt;&lt;b&gt;Fixed menu bar&lt;/b&gt;&lt;/font&gt;" style="whiteSpace=wrap;html=1;rounded=0;shadow=0;labelBackgroundColor=none;strokeWidth=1;fillColor=none;fontFamily=Verdana;fontSize=12;align=center;verticalAlign=top;spacing=10;comic=1;" parent="1" vertex="1">
          <mxGeometry x="20" y="150" width="1060" height="80" as="geometry" />
        </mxCell>
        <mxCell id="bn-o1jzMvr0Oua4psibJ-23" value="&lt;b&gt;&lt;font style=&quot;font-size: 16px;&quot;&gt;GIF Display Area. Rows width will adjust to browser window width, and will scroll vertically.&lt;/font&gt;&lt;/b&gt;" style="whiteSpace=wrap;html=1;rounded=0;shadow=0;labelBackgroundColor=none;strokeWidth=1;fillColor=none;fontFamily=Verdana;fontSize=12;align=center;verticalAlign=top;spacing=10;comic=1;" parent="1" vertex="1">
          <mxGeometry x="20" y="250" width="1060" height="490" as="geometry" />
        </mxCell>
        <mxCell id="bn-o1jzMvr0Oua4psibJ-53" value="About" style="shape=rectangle;strokeColor=none;fillColor=none;linkText=;fontSize=17;fontColor=#0000ff;fontStyle=4;html=1;align=center;" parent="1" vertex="1">
          <mxGeometry x="870" y="50" width="80" height="30" as="geometry" />
        </mxCell>
        <mxCell id="bn-o1jzMvr0Oua4psibJ-54" value="Contact" style="shape=rectangle;strokeColor=none;fillColor=none;linkText=;fontSize=17;fontColor=#0000ff;fontStyle=4;html=1;align=center;" parent="1" vertex="1">
          <mxGeometry x="940" y="50" width="130" height="30" as="geometry" />
        </mxCell>
        <mxCell id="bv2lxj22GfZCS5aB3f3w-3" value="LOGO" style="whiteSpace=wrap;html=1;rounded=0;shadow=0;labelBackgroundColor=none;strokeWidth=1;fontFamily=Verdana;fontSize=28;align=center;comic=1;" vertex="1" parent="1">
          <mxGeometry x="40" y="50" width="210" height="50" as="geometry" />
        </mxCell>
        <mxCell id="bv2lxj22GfZCS5aB3f3w-4" value="Search query" style="whiteSpace=wrap;html=1;rounded=0;shadow=0;labelBackgroundColor=none;strokeWidth=1;fontFamily=Verdana;fontSize=18;align=left;comic=1;" vertex="1" parent="1">
          <mxGeometry x="30" y="170" width="310" height="35" as="geometry" />
        </mxCell>
        <mxCell id="bv2lxj22GfZCS5aB3f3w-7" value="# of Gifs" style="whiteSpace=wrap;html=1;rounded=0;shadow=0;labelBackgroundColor=none;strokeWidth=1;fontFamily=Verdana;fontSize=18;align=left;comic=1;" vertex="1" parent="1">
          <mxGeometry x="960" y="170" width="90" height="35" as="geometry" />
        </mxCell>
        <mxCell id="bv2lxj22GfZCS5aB3f3w-8" value="Submit" style="rounded=1;fillColor=#0057D8;align=center;strokeColor=none;html=1;whiteSpace=wrap;fontColor=#ffffff;fontSize=12;sketch=0;" vertex="1" parent="1">
          <mxGeometry x="360" y="173.5" width="80" height="33" as="geometry" />
        </mxCell>
        <mxCell id="bv2lxj22GfZCS5aB3f3w-9" value="" style="html=1;shadow=0;dashed=0;shape=mxgraph.atlassian.close;fillColor=#BA3200;strokeColor=none;html=1;sketch=0;" vertex="1" parent="1">
          <mxGeometry x="350" y="182.5" width="14" height="14" as="geometry" />
        </mxCell>
        <mxCell id="bv2lxj22GfZCS5aB3f3w-10" value="" style="sketch=0;outlineConnect=0;fontColor=#232F3E;gradientColor=none;fillColor=#ED7100;strokeColor=none;dashed=0;verticalLabelPosition=bottom;verticalAlign=top;align=center;html=1;fontSize=12;fontStyle=0;aspect=fixed;pointerEvents=1;shape=mxgraph.aws4.container_registry_image;" vertex="1" parent="1">
          <mxGeometry x="90" y="310" width="190" height="190" as="geometry" />
        </mxCell>
        <mxCell id="bv2lxj22GfZCS5aB3f3w-11" value="" style="sketch=0;outlineConnect=0;fontColor=#232F3E;gradientColor=none;fillColor=#ED7100;strokeColor=none;dashed=0;verticalLabelPosition=bottom;verticalAlign=top;align=center;html=1;fontSize=12;fontStyle=0;aspect=fixed;pointerEvents=1;shape=mxgraph.aws4.container_registry_image;" vertex="1" parent="1">
          <mxGeometry x="340" y="310" width="190" height="190" as="geometry" />
        </mxCell>
        <mxCell id="bv2lxj22GfZCS5aB3f3w-12" value="" style="sketch=0;outlineConnect=0;fontColor=#232F3E;gradientColor=none;fillColor=#ED7100;strokeColor=none;dashed=0;verticalLabelPosition=bottom;verticalAlign=top;align=center;html=1;fontSize=12;fontStyle=0;aspect=fixed;pointerEvents=1;shape=mxgraph.aws4.container_registry_image;" vertex="1" parent="1">
          <mxGeometry x="580" y="310" width="190" height="190" as="geometry" />
        </mxCell>
        <mxCell id="bv2lxj22GfZCS5aB3f3w-13" value="" style="sketch=0;outlineConnect=0;fontColor=#232F3E;gradientColor=none;fillColor=#ED7100;strokeColor=none;dashed=0;verticalLabelPosition=bottom;verticalAlign=top;align=center;html=1;fontSize=12;fontStyle=0;aspect=fixed;pointerEvents=1;shape=mxgraph.aws4.container_registry_image;" vertex="1" parent="1">
          <mxGeometry x="830" y="310" width="190" height="190" as="geometry" />
        </mxCell>
        <mxCell id="bv2lxj22GfZCS5aB3f3w-14" value="" style="sketch=0;outlineConnect=0;fontColor=#232F3E;gradientColor=none;fillColor=#ED7100;strokeColor=none;dashed=0;verticalLabelPosition=bottom;verticalAlign=top;align=center;html=1;fontSize=12;fontStyle=0;aspect=fixed;pointerEvents=1;shape=mxgraph.aws4.container_registry_image;" vertex="1" parent="1">
          <mxGeometry x="90" y="520" width="190" height="190" as="geometry" />
        </mxCell>
        <mxCell id="bv2lxj22GfZCS5aB3f3w-15" value="" style="sketch=0;outlineConnect=0;fontColor=#232F3E;gradientColor=none;fillColor=#ED7100;strokeColor=none;dashed=0;verticalLabelPosition=bottom;verticalAlign=top;align=center;html=1;fontSize=12;fontStyle=0;aspect=fixed;pointerEvents=1;shape=mxgraph.aws4.container_registry_image;" vertex="1" parent="1">
          <mxGeometry x="340" y="520" width="190" height="190" as="geometry" />
        </mxCell>
        <mxCell id="bv2lxj22GfZCS5aB3f3w-16" value="" style="sketch=0;outlineConnect=0;fontColor=#232F3E;gradientColor=none;fillColor=#ED7100;strokeColor=none;dashed=0;verticalLabelPosition=bottom;verticalAlign=top;align=center;html=1;fontSize=12;fontStyle=0;aspect=fixed;pointerEvents=1;shape=mxgraph.aws4.container_registry_image;" vertex="1" parent="1">
          <mxGeometry x="580" y="520" width="190" height="190" as="geometry" />
        </mxCell>
        <mxCell id="bv2lxj22GfZCS5aB3f3w-17" value="" style="sketch=0;outlineConnect=0;fontColor=#232F3E;gradientColor=none;fillColor=#ED7100;strokeColor=none;dashed=0;verticalLabelPosition=bottom;verticalAlign=top;align=center;html=1;fontSize=12;fontStyle=0;aspect=fixed;pointerEvents=1;shape=mxgraph.aws4.container_registry_image;" vertex="1" parent="1">
          <mxGeometry x="830" y="520" width="190" height="190" as="geometry" />
        </mxCell>
      </root>
    </mxGraphModel>
  </diagram>
</mxfile>
